Coordinates
version=1
nRows=19
nColumns=24
inDegrees=yes

Units are S.I. units (second, meters, Newtons, ...)
Angles are in degrees.

endheader
time	pelvis_tilt	pelvis_list	pelvis_rotation	pelvis_tx	pelvis_ty	pelvis_tz	hip_flexion_r	hip_adduction_r	hip_rotation_r	knee_angle_r	ankle_angle_r	subtalar_angle_r	mtp_angle_r	hip_flexion_l	hip_adduction_l	hip_rotation_l	knee_angle_l	ankle_angle_l	subtalar_angle_l	mtp_angle_l	lumbar_extension	lumbar_bending	lumbar_rotation
      4.83500000	    -16.98851235	      2.12843466	     -7.01040316	     -1.30162654	     -0.04354917	     -0.29233918	      1.69855979	     -0.03189541	      0.01470457	    -19.72398315	     13.48801150	     -0.93946657	     -2.34487612	     45.26545990	     -4.19876930	    -20.47059349	    -14.65266060	     -1.54532679	      8.36014131	     22.44612709	     18.95072801	     -0.64030500	     -2.40238911
      4.84000000	    -16.94010910	      2.43787513	     -7.02417625	     -1.29400280	     -0.04406648	     -0.29298404	      1.53776845	     -0.58734450	     -0.19615910	    -20.36144920	     13.04513289	     -0.23094873	     -1.97570771	     45.13974435	     -3.86780860	    -20.37469875	    -15.18542468	     -1.99946492	      7.71058351	     22.39577501	     19.04293380	     -0.96524791	     -2.29273794
      4.84500000	    -16.89714516	      2.65581683	     -6.96352678	     -1.28638001	     -0.04453127	     -0.29366216	      1.36335696	     -1.02777846	     -0.40354750	    -20.97427964	     12.41972920	      0.24894345	     -1.55576964	     45.05735990	     -3.58298319	    -20.24577341	    -15.80430905	     -2.54308914	      7.17495627	     22.45081277	     19.11981981	     -1.23543911	     -2.32254822
      4.85000000	    -16.85197675	      2.83890307	     -6.88298082	     -1.27874716	     -0.04492411	     -0.29439656	      1.21213449	     -1.44543456	     -0.69947476	    -21.60992906	     11.66180089	      0.71240260	     -0.76502949	     44.97987690	     -3.31041677	    -20.05159166	    -16.44039348	     -3.18745594	      6.57781674	     22.69519530	     19.18708863	     -1.47408003	     -2.36720609
      4.85500000	    -16.90780816	      3.12519971	     -6.87232648	     -1.27099093	     -0.04527924	     -0.29496769	      1.20451647	     -1.92490147	     -0.69562277	    -22.28968781	     10.85532899	      1.01461656	     -0.44699550	     44.98536322	     -3.01948741	    -19.96615404	    -17.07418884	     -3.94052766	      5.98392219	     22.70443187	     19.40170194	     -1.79267750	     -2.32179001
      4.86000000	    -16.95509895	      3.38249194	     -6.78392902	     -1.26323837	     -0.04557559	     -0.29576722	      1.23296342	     -2.42289026	     -0.97121313	    -23.04090375	      9.97935415	      1.51168791	      0.07359858	     44.99977356	     -2.66408287	    -19.66360447	    -17.70820630	     -4.77324270	      5.16911227	     22.73551220	     19.59171917	     -2.09293761	     -2.36687702
      4.86500000	    -17.01203643	      3.65560700	     -6.67169279	     -1.25543504	     -0.04578210	     -0.29659110	      1.29756182	     -2.93931056	     -1.24858242	    -23.81283258	      8.98090047	      1.93288611	      0.75899272	     45.02234720	     -2.26877256	    -19.27025155	    -18.33199395	     -5.63493961	      4.30141597	     22.73986052	     19.79846552	     -2.41883100	     -2.41830266
      4.87000000	    -17.02181776	      3.89382548	     -6.48775584	     -1.24757291	     -0.04584677	     -0.29752790	      1.29454941	     -3.45522559	     -1.71229687	    -24.45854091	      7.64331048	      2.08070929	      3.45969516	     45.00485948	     -1.84392199	    -18.78382418	    -18.96148443	     -6.46352809	      3.49463296	     22.92394640	     19.94806278	     -2.73919385	     -2.51426370
      4.87500000	    -17.11180165	      4.15587048	     -6.38118580	     -1.23980185	     -0.04592929	     -0.29846094	      1.50477625	     -3.98304051	     -2.02148775	    -25.37153858	      6.46101948	      2.54280388	      4.09081720	     45.08067919	     -1.43207261	    -18.19395291	    -19.62449310	     -7.19816567	      2.51899148	     22.58884271	     20.17713021	     -3.03484571	     -2.53945288
      4.88000000	    -17.19185628	      4.45674619	     -6.18987044	     -1.23181230	     -0.04589618	     -0.29946078	      1.67351289	     -4.56546781	     -2.42121993	    -26.15784136	      4.96122464	      2.64717897	      6.25910715	     45.12931141	     -0.91433013	    -17.54744114	    -20.29218567	     -7.79336427	      1.65385256	     21.84381428	     20.42771221	     -3.40458388	     -2.64774544
      4.88500000	    -17.27597252	      4.70944010	     -6.06901082	     -1.22401498	     -0.04583609	     -0.30051321	      1.96662933	     -5.11065555	     -2.75400520	    -27.14984356	      3.50288450	      3.01740221	      7.25559816	     45.19331540	     -0.46105437	    -16.82862236	    -20.96767079	     -8.29898132	      0.57578188	     21.25933464	     20.64291607	     -3.68287358	     -2.68103429
      4.89000000	    -17.30681074	      4.98492854	     -5.94640064	     -1.21611454	     -0.04560704	     -0.30150976	      2.19643998	     -5.67145500	     -3.01955556	    -28.00026114	      1.67303628	      2.83366762	     10.15022492	     45.18659143	      0.01662564	    -16.17115370	    -21.69653117	     -8.55314137	     -0.21541194	     19.89226927	     20.81909442	     -3.99868922	     -2.71016690
      4.89500000	    -17.39006975	      5.21950518	     -5.79451836	     -1.20829206	     -0.04548328	     -0.30267114	      2.58151907	     -6.21855398	     -3.36720168	    -29.08573047	     -0.04774780	      3.07958074	     11.34799242	     45.23313849	      0.49982051	    -15.44232222	    -22.38603409	     -8.75225545	     -1.26275814	     19.11275769	     21.02210262	     -4.26161401	     -2.78922861
      4.90000000	    -17.39122099	      5.46866373	     -5.70548864	     -1.20041208	     -0.04512447	     -0.30364207	      2.88413388	     -6.74505373	     -3.50678084	    -30.01261917	     -2.16455184	      2.68150664	     14.40478638	     45.16233169	      0.94068755	    -14.87916540	    -23.12536166	     -8.65169448	     -1.86049630	     17.44710218	     21.15405139	     -4.54170507	     -2.78669687
      4.90500000	    -17.46613837	      5.71112131	     -5.54061333	     -1.19253355	     -0.04490267	     -0.30478167	      3.33513090	     -7.29067391	     -3.77480672	    -31.10743112	     -4.23248063	      2.52605348	     16.35408924	     45.15693878	      1.43267385	    -14.31083969	    -23.81491855	     -8.52161015	     -2.61755282	     16.29546804	     21.35317664	     -4.82383994	     -2.87686896
      4.91000000	    -17.49658210	      5.92060519	     -5.44682846	     -1.18487407	     -0.04458174	     -0.30585841	      3.83031808	     -7.78186984	     -3.86214481	    -32.25593478	     -6.44012426	      2.19683841	     18.60873422	     45.08561101	      1.85241450	    -13.79602241	    -24.49331159	     -8.26222003	     -3.23042436	     14.95823629	     21.46366619	     -5.05256941	     -2.87478127
      4.91500000	    -17.50125819	      6.11249936	     -5.39004370	     -1.17726788	     -0.04421386	     -0.30684529	      4.35632019	     -8.22796647	     -3.82205312	    -33.44511680	     -8.73939727	      1.74462329	     20.70543145	     44.95432811	      2.22092271	    -13.40513407	    -25.13625519	     -7.85805252	     -3.73170037	     13.76297565	     21.53943147	     -5.25936446	     -2.83478698
      4.92000000	    -17.49944972	      6.29019535	     -5.36084228	     -1.16976762	     -0.04382474	     -0.30781343	      4.94533602	     -8.63438591	     -3.66630165	    -34.70321634	    -11.07930789	      1.23135167	     22.41242014	     44.78710799	      2.55293078	    -13.11094380	    -25.72893151	     -7.39141905	     -4.19132410	     12.78439740	     21.58880670	     -5.43555333	     -2.76353736
      4.92500000	    -17.51069898	      6.50086971	     -5.29139557	     -1.16223669	     -0.04343922	     -0.30870785	      5.57907119	     -9.05850695	     -3.51488373	    -35.97880036	    -13.45731486	      0.58202022	     24.25692402	     44.59415675	      2.90939042	    -12.95138352	    -26.27386741	     -6.80257915	     -4.37145940	     11.80510201	     21.65913185	     -5.68124467	     -2.74340204
